<svg xmlns="http://www.w3.org/2000/svg" width="262" height="310" fill="#fff" xmlns:v="https://vecta.io/nano"><path d="M40.965 225h-8.789l-17.109-28.066V225H6.277v-42.656h8.789l17.139 28.125v-28.125h8.76V225zm49.315-20.361c0 4.199-.742 7.881-2.227 11.045s-3.613 5.605-6.387 7.324c-2.754 1.719-5.918 2.578-9.492 2.578-3.535 0-6.689-.85-9.463-2.549s-4.922-4.121-6.445-7.266c-1.523-3.164-2.295-6.796-2.314-10.898v-2.109c0-4.2.752-7.891 2.256-11.075 1.523-3.203 3.662-5.654 6.416-7.353 2.774-1.719 5.938-2.578 9.492-2.578s6.709.859 9.463 2.578c2.773 1.699 4.912 4.15 6.416 7.353 1.523 3.184 2.285 6.866 2.285 11.045v1.905zm-8.906-1.934c0-4.473-.801-7.871-2.402-10.195s-3.887-3.487-6.856-3.487c-2.949 0-5.225 1.153-6.826 3.457-1.602 2.286-2.412 5.645-2.432 10.079v2.08c0 4.355.801 7.734 2.402 10.136s3.906 3.604 6.914 3.604c2.949 0 5.215-1.152 6.797-3.457 1.582-2.324 2.383-5.703 2.402-10.137v-2.08zm33.378-20.361l10.957 30.937 10.898-30.937h11.543V225h-8.818v-11.66l.879-20.127L128.696 225h-6.035l-11.484-31.758.878 20.098V225h-8.789v-42.656h11.485zM183.966 225v-42.656h13.125c3.75 0 7.1.849 10.049 2.549 2.969 1.679 5.283 4.082 6.944 7.207 1.66 3.105 2.49 6.64 2.49 10.605v1.963c0 3.965-.82 7.49-2.461 10.576-1.621 3.086-3.916 5.479-6.885 7.178s-6.318 2.558-10.049 2.578h-13.213zm8.789-35.537v28.476h4.249c3.437 0 6.064-1.123 7.88-3.369s2.745-5.459 2.784-9.638v-2.256c0-4.336-.899-7.617-2.696-9.844-1.797-2.246-4.424-3.369-7.881-3.369h-4.336zm62.499 17.051h-16.875v11.425h19.805V225H229.59v-42.656h28.535v7.119h-19.746v10.166h16.875v6.885zM11.558 298.176H53.26V303H4.646v-4.314l40.078-58.354H5.852v-4.871h45.923v4.082l-40.217 58.633zm102.064-27.554h-31.59v27.554h36.321V303H76.327v-67.539h41.794v4.871H82.032v25.466h31.59v4.824zm73.768-35.161v46.108c-.031 4.546-1.036 8.505-3.016 11.875s-4.777 5.969-8.396 7.793c-3.587 1.794-7.715 2.691-12.385 2.691-7.112 0-12.818-1.933-17.117-5.799-4.267-3.896-6.478-9.277-6.633-16.142v-46.526h5.659v45.691c0 5.69 1.624 10.112 4.871 13.266 3.247 3.124 7.654 4.686 13.22 4.686s9.958-1.578 13.174-4.732c3.247-3.154 4.871-7.546 4.871-13.174v-45.737h5.752zm64.583 50.933c0-3.742-1.314-6.696-3.943-8.86-2.629-2.196-7.437-4.268-14.426-6.216-6.989-1.979-12.092-4.129-15.308-6.448-4.577-3.278-6.865-7.576-6.865-12.895 0-5.165 2.118-9.355 6.355-12.571 4.267-3.247 9.71-4.871 16.328-4.871 4.484 0 8.489.866 12.014 2.598 3.556 1.732 6.309 4.144 8.257 7.236s2.922 6.541 2.922 10.344h-5.752c0-4.607-1.577-8.303-4.731-11.086-3.154-2.814-7.391-4.221-12.71-4.221-5.164 0-9.277 1.159-12.339 3.479-3.061 2.288-4.592 5.288-4.592 8.999 0 3.432 1.376 6.231 4.128 8.396s7.159 4.082 13.22 5.752c6.062 1.639 10.654 3.355 13.777 5.149 3.124 1.762 5.474 3.881 7.051 6.355s2.366 5.396 2.366 8.767c0 5.319-2.134 9.586-6.402 12.803-4.236 3.216-9.834 4.824-16.792 4.824-4.762 0-9.138-.851-13.127-2.552-3.958-1.7-6.973-4.082-9.045-7.143-2.041-3.062-3.062-6.572-3.062-10.53h5.706c0 4.762 1.778 8.52 5.334 11.272s8.288 4.129 14.194 4.129c5.258 0 9.479-1.16 12.664-3.479s4.778-5.397 4.778-9.231z"/><path d="M95.138.369l82.596 81.998c.337.341.565.773.657 1.242s.042.954-.142 1.396a2.44 2.44 0 0 1-.893 1.087c-.398.268-.867.413-1.348.419H122.25c-.445.004-.88.127-1.259.358a2.44 2.44 0 0 0-.895.95c-.207.391-.302.831-.276 1.272s.171.866.422 1.231l41.468 59.305-85.416-81.958a2.43 2.43 0 0 1-.68-1.246 2.42 2.42 0 0 1 .133-1.411 2.44 2.44 0 0 1 .901-1.099 2.47 2.47 0 0 1 1.364-.416h56.582a2.47 2.47 0 0 0 1.26-.358c.379-.23.689-.559.895-.95s.301-.831.276-1.272-.172-.866-.422-1.231L95.138.369z" stroke="#fff" stroke-miterlimit="10"/></svg>