<svg width="262" height="310" viewBox="0 0 262 310" fill="none" xmlns="http://www.w3.org/2000/svg">
<path d="M40.9648 225H32.1758L15.0664 196.934V225H6.27734V182.344H15.0664L32.2051 210.469V182.344H40.9648V225ZM90.2797 204.639C90.2797 208.838 89.5375 212.52 88.0531 215.684C86.5687 218.848 84.4398 221.289 81.6664 223.008C78.9125 224.727 75.7484 225.586 72.1742 225.586C68.6391 225.586 65.4848 224.736 62.7113 223.037C59.9379 221.338 57.7895 218.916 56.266 215.771C54.7426 212.607 53.9711 208.975 53.9516 204.873V202.764C53.9516 198.564 54.7035 194.873 56.2074 191.689C57.7309 188.486 59.8695 186.035 62.6234 184.336C65.3969 182.617 68.5609 181.758 72.1156 181.758C75.6703 181.758 78.8246 182.617 81.5785 184.336C84.352 186.035 86.4906 188.486 87.9945 191.689C89.518 194.873 90.2797 198.555 90.2797 202.734V204.639ZM81.3734 202.705C81.3734 198.232 80.5727 194.834 78.9711 192.51C77.3695 190.186 75.0844 189.023 72.1156 189.023C69.1664 189.023 66.891 190.176 65.2895 192.48C63.6879 194.766 62.8773 198.125 62.8578 202.559V204.639C62.8578 208.994 63.6586 212.373 65.2602 214.775C66.8617 217.178 69.1664 218.379 72.1742 218.379C75.1234 218.379 77.3891 217.227 78.9711 214.922C80.5531 212.598 81.3539 209.219 81.3734 204.785V202.705ZM114.751 182.344L125.708 213.281L136.606 182.344H148.149V225H139.331V213.34L140.21 193.213L128.696 225H122.661L111.177 193.242L112.055 213.34V225H103.266V182.344H114.751ZM183.966 225V182.344H197.091C200.841 182.344 204.191 183.193 207.14 184.893C210.109 186.572 212.423 188.975 214.084 192.1C215.744 195.205 216.574 198.74 216.574 202.705V204.668C216.574 208.633 215.754 212.158 214.113 215.244C212.492 218.33 210.197 220.723 207.228 222.422C204.259 224.121 200.91 224.98 197.179 225H183.966ZM192.755 189.463V217.939H197.004C200.441 217.939 203.068 216.816 204.884 214.57C206.701 212.324 207.629 209.111 207.668 204.932V202.676C207.668 198.34 206.769 195.059 204.972 192.832C203.175 190.586 200.548 189.463 197.091 189.463H192.755ZM255.254 206.514H238.379V217.939H258.184V225H229.59V182.344H258.125V189.463H238.379V199.629H255.254V206.514ZM11.5579 298.176H53.2596V303H4.64629V298.686L44.7244 240.332H5.85234V235.461H51.7752V239.543L11.5579 298.176ZM113.622 270.622H82.0323V298.176H118.353V303H76.3268V235.461H118.121V240.332H82.0323V265.798H113.622V270.622ZM187.39 235.461V281.569C187.359 286.115 186.354 290.074 184.374 293.444C182.395 296.815 179.597 299.413 175.978 301.237C172.391 303.031 168.263 303.928 163.593 303.928C156.481 303.928 150.775 301.995 146.476 298.129C142.209 294.233 139.998 288.852 139.843 281.987V235.461H145.502V281.152C145.502 286.842 147.126 291.264 150.373 294.418C153.62 297.542 158.027 299.104 163.593 299.104C169.16 299.104 173.551 297.526 176.767 294.372C180.014 291.218 181.638 286.826 181.638 281.198V235.461H187.39ZM251.973 286.394C251.973 282.652 250.659 279.698 248.03 277.534C245.401 275.338 240.593 273.266 233.604 271.318C226.615 269.339 221.512 267.189 218.296 264.87C213.719 261.592 211.431 257.294 211.431 251.975C211.431 246.81 213.549 242.62 217.786 239.404C222.053 236.157 227.496 234.533 234.114 234.533C238.598 234.533 242.603 235.399 246.128 237.131C249.684 238.863 252.437 241.275 254.385 244.367C256.333 247.46 257.307 250.908 257.307 254.711H251.555C251.555 250.104 249.978 246.408 246.824 243.625C243.67 240.811 239.433 239.404 234.114 239.404C228.95 239.404 224.837 240.563 221.775 242.883C218.714 245.171 217.183 248.171 217.183 251.882C217.183 255.314 218.559 258.113 221.311 260.278C224.064 262.443 228.47 264.36 234.531 266.03C240.593 267.669 245.185 269.385 248.308 271.179C251.432 272.941 253.782 275.06 255.359 277.534C256.936 280.008 257.725 282.93 257.725 286.301C257.725 291.62 255.591 295.887 251.323 299.104C247.087 302.32 241.489 303.928 234.531 303.928C229.769 303.928 225.393 303.077 221.404 301.376C217.446 299.676 214.431 297.294 212.359 294.233C210.318 291.171 209.297 287.661 209.297 283.703H215.003C215.003 288.465 216.781 292.223 220.337 294.975C223.893 297.727 228.625 299.104 234.531 299.104C239.789 299.104 244.01 297.944 247.195 295.625C250.38 293.305 251.973 290.228 251.973 286.394Z" fill="#343434"/>
<path d="M95.1385 0.368622L177.734 82.3671C178.071 82.7084 178.299 83.1402 178.391 83.6091C178.482 84.0781 178.433 84.5634 178.249 85.0047C178.065 85.4461 177.755 85.8241 177.356 86.0918C176.958 86.3595 176.489 86.505 176.008 86.5104H122.25C121.805 86.5141 121.37 86.6377 120.991 86.8679C120.611 87.0982 120.302 87.4264 120.096 87.8177C119.889 88.2089 119.794 88.6484 119.82 89.0892C119.845 89.53 119.991 89.9556 120.242 90.3205L161.71 149.625L76.2942 67.6672C75.9484 67.328 75.7119 66.8944 75.6146 66.4215C75.5173 65.9486 75.5635 65.4576 75.7475 65.0109C75.9315 64.5641 76.2449 64.1816 76.6481 63.9119C77.0512 63.6422 77.5259 63.4974 78.0121 63.4958H134.594C135.039 63.4921 135.474 63.3685 135.854 63.1383C136.233 62.908 136.543 62.5798 136.749 62.1886C136.955 61.7974 137.05 61.3579 137.025 60.9171C136.999 60.4762 136.853 60.0507 136.603 59.6857L95.1385 0.368622Z" fill="#343434" stroke="#343434" stroke-miterlimit="10"/>
</svg>
