<svg xmlns="http://www.w3.org/2000/svg" width="34" height="49" fill="none" xmlns:v="https://vecta.io/nano"><g clip-path="url(#A)"><path d="M6.584.12l27.002 26.786c.11.111.185.252.215.406a.79.79 0 0 1-.046.456.8.8 0 0 1-.292.355c-.13.087-.284.135-.441.137H15.447c-.145.001-.288.042-.412.117a.8.8 0 0 0-.293.31.79.79 0 0 0 .048.818l13.557 19.373L.423 22.105c-.113-.111-.19-.252-.222-.407a.79.79 0 0 1 .043-.461.8.8 0 0 1 .294-.359c.132-.088.287-.135.446-.136h18.498a.81.81 0 0 0 .412-.117.8.8 0 0 0 .293-.31.79.79 0 0 0 .09-.415c-.008-.144-.056-.283-.138-.402L6.584.12z" fill="#fff" stroke="#fff" stroke-miterlimit="10"/></g><defs><clipPath id="A"><path fill="#fff" d="M0 0h34v49H0z"/></clipPath></defs></svg>