<svg xmlns="http://www.w3.org/2000/svg" width="72" height="45" fill="none" xmlns:v="https://vecta.io/nano"><path d="M8.698 26.01l7.537 7.531c.03.045.046.098.046.152s-.016.107-.046.152c-.024.023-.053.041-.084.051s-.065.014-.098.01H11.13c-.063.004-.122.031-.167.076a.26.26 0 0 0-.076.166c0 .061 0 .061.061.121l3.768 5.466-7.777-7.53c-.03-.045-.046-.098-.046-.152s.016-.107.046-.152c.024-.023.053-.041.084-.051s.065-.014.098-.01h5.167c.063-.004.122-.031.167-.076a.26.26 0 0 0 .076-.166c0-.061 0-.061-.061-.121L8.698 26.01z" fill="#fff"/><g stroke="#fff" stroke-miterlimit="10"><path d="M71.366.685H.857v43.058h70.509V.685z"/><path d="M.857.685L36.05 22.184 71.305.685M22.496 29.836h18.417m-18.417 3.036h26.197m-26.197 3.037h35.316"/></g></svg>