<svg width="199" height="50" viewBox="0 0 199 50" fill="none" xmlns="http://www.w3.org/2000/svg">
<path d="M136.988 22H134.059L128.355 12.6445V22H125.426V7.78125H128.355L134.068 17.1562V7.78125H136.988V22ZM151.227 15.2129C151.227 16.6126 150.979 17.8398 150.484 18.8945C149.99 19.9492 149.28 20.763 148.355 21.3359C147.438 21.9089 146.383 22.1953 145.191 22.1953C144.013 22.1953 142.962 21.9121 142.037 21.3457C141.113 20.7793 140.396 19.972 139.889 18.9238C139.381 17.8691 139.124 16.6582 139.117 15.291V14.5879C139.117 13.1882 139.368 11.9577 139.869 10.8965C140.377 9.82878 141.09 9.01172 142.008 8.44531C142.932 7.8724 143.987 7.58594 145.172 7.58594C146.357 7.58594 147.408 7.8724 148.326 8.44531C149.251 9.01172 149.964 9.82878 150.465 10.8965C150.973 11.9577 151.227 13.1849 151.227 14.5781V15.2129ZM148.258 14.5684C148.258 13.0775 147.991 11.9447 147.457 11.1699C146.923 10.3952 146.161 10.0078 145.172 10.0078C144.189 10.0078 143.43 10.3919 142.896 11.1602C142.363 11.9219 142.092 13.0417 142.086 14.5195V15.2129C142.086 16.6647 142.353 17.791 142.887 18.5918C143.421 19.3926 144.189 19.793 145.191 19.793C146.174 19.793 146.93 19.4089 147.457 18.6406C147.984 17.8659 148.251 16.7396 148.258 15.2617V14.5684ZM157.184 7.78125L160.836 18.0938L164.469 7.78125H168.316V22H165.377V18.1133L165.67 11.4043L161.832 22H159.82L155.992 11.4141L156.285 18.1133V22H153.355V7.78125H157.184ZM175.855 22V7.78125H180.23C181.48 7.78125 182.597 8.06445 183.58 8.63086C184.57 9.19076 185.341 9.99154 185.895 11.0332C186.448 12.0684 186.725 13.2467 186.725 14.5684V15.2227C186.725 16.5443 186.451 17.7194 185.904 18.748C185.364 19.7767 184.599 20.5742 183.609 21.1406C182.62 21.707 181.503 21.9935 180.26 22H175.855ZM178.785 10.1543V19.6465H180.201C181.347 19.6465 182.223 19.2721 182.828 18.5234C183.434 17.7747 183.743 16.7038 183.756 15.3105V14.5586C183.756 13.1133 183.456 12.0195 182.857 11.2773C182.258 10.5286 181.383 10.1543 180.23 10.1543H178.785ZM197.418 15.8379H191.793V19.6465H198.395V22H188.863V7.78125H198.375V10.1543H191.793V13.543H197.418V15.8379ZM128.731 45.4766H141.9V47H126.549V45.6377L139.205 27.21H126.93V25.6719H141.432V26.9609L128.731 45.4766ZM157.662 36.7754H147.687V45.4766H159.156V47H145.885V25.6719H159.083V27.21H147.687V35.252H157.662V36.7754ZM177.657 25.6719V40.2324C177.647 41.668 177.33 42.918 176.705 43.9824C176.08 45.0469 175.196 45.8672 174.054 46.4434C172.921 47.0098 171.617 47.293 170.143 47.293C167.896 47.293 166.095 46.6826 164.737 45.4619C163.39 44.2314 162.691 42.5322 162.643 40.3643V25.6719H164.43V40.1006C164.43 41.8975 164.942 43.2939 165.968 44.29C166.993 45.2764 168.385 45.7695 170.143 45.7695C171.9 45.7695 173.287 45.2715 174.303 44.2754C175.328 43.2793 175.841 41.8926 175.841 40.1152V25.6719H177.657ZM194.752 41.7559C194.752 40.5742 194.337 39.6416 193.507 38.958C192.677 38.2646 191.158 37.6104 188.951 36.9951C186.744 36.3701 185.133 35.6914 184.117 34.959C182.672 33.9238 181.949 32.5664 181.949 30.8867C181.949 29.2559 182.618 27.9326 183.956 26.917C185.304 25.8916 187.022 25.3789 189.112 25.3789C190.528 25.3789 191.793 25.6523 192.906 26.1992C194.029 26.7461 194.898 27.5078 195.514 28.4844C196.129 29.4609 196.437 30.5498 196.437 31.751H194.62C194.62 30.2959 194.122 29.1289 193.126 28.25C192.13 27.3613 190.792 26.917 189.112 26.917C187.481 26.917 186.183 27.2832 185.216 28.0156C184.249 28.7383 183.766 29.6855 183.766 30.8574C183.766 31.9414 184.2 32.8252 185.069 33.5088C185.938 34.1924 187.33 34.7979 189.244 35.3252C191.158 35.8428 192.608 36.3848 193.595 36.9512C194.581 37.5078 195.323 38.1768 195.821 38.958C196.319 39.7393 196.568 40.6621 196.568 41.7266C196.568 43.4062 195.895 44.7539 194.547 45.7695C193.209 46.7852 191.441 47.293 189.244 47.293C187.74 47.293 186.358 47.0244 185.099 46.4873C183.849 45.9502 182.896 45.1982 182.242 44.2314C181.598 43.2646 181.275 42.1562 181.275 40.9062H183.077C183.077 42.4102 183.639 43.5967 184.762 44.4658C185.885 45.335 187.379 45.7695 189.244 45.7695C190.904 45.7695 192.237 45.4033 193.243 44.6709C194.249 43.9385 194.752 42.9668 194.752 41.7559Z" fill="white"/>
<g clip-path="url(#clip0_1_2)">
<path d="M6.58372 0.120417L33.5862 26.9066C33.6962 27.0181 33.7708 27.1591 33.8008 27.3123C33.8307 27.4655 33.8146 27.624 33.7545 27.7682C33.6943 27.9124 33.5929 28.0359 33.4626 28.1233C33.3323 28.2108 33.1791 28.2583 33.0218 28.2601H15.4472C15.3018 28.2613 15.1594 28.3017 15.0354 28.3769C14.9113 28.4521 14.8102 28.5593 14.7428 28.6871C14.6753 28.8149 14.6442 28.9585 14.6526 29.1025C14.661 29.2465 14.7087 29.3855 14.7906 29.5047L28.3475 48.8775L0.423097 22.1046C0.310061 21.9938 0.232736 21.8522 0.200919 21.6977C0.169102 21.5432 0.184227 21.3828 0.244376 21.2369C0.304526 21.0909 0.406993 20.966 0.538792 20.8779C0.67059 20.7898 0.825785 20.7425 0.984712 20.742H19.4827C19.6281 20.7408 19.7704 20.7004 19.8945 20.6252C20.0185 20.55 20.1197 20.4427 20.1871 20.3149C20.2545 20.1871 20.2857 20.0436 20.2773 19.8996C20.2688 19.7556 20.2211 19.6165 20.1393 19.4973L6.58372 0.120417Z" fill="white" stroke="white" stroke-miterlimit="10"/>
</g>
<defs>
<clipPath id="clip0_1_2">
<rect width="34" height="49" fill="white"/>
</clipPath>
</defs>
</svg>
