<svg xmlns="http://www.w3.org/2000/svg" width="74" height="41" fill="none" xmlns:v="https://vecta.io/nano"><path d="M11.988 15h-2.93L3.355 5.645V15H.426V.781h2.93l5.713 9.375V.781h2.92V15zm14.238-6.787c0 1.4-.247 2.627-.742 3.682s-1.204 1.868-2.129 2.441c-.918.573-1.973.859-3.164.859-1.178 0-2.23-.283-3.154-.85s-1.641-1.374-2.148-2.422c-.508-1.055-.765-2.266-.771-3.633v-.703c0-1.4.251-2.63.752-3.691.508-1.068 1.221-1.885 2.139-2.451.925-.573 1.979-.859 3.164-.859s2.236.286 3.154.859c.924.566 1.637 1.383 2.139 2.451.508 1.061.762 2.288.762 3.682v.635zm-2.969-.645c0-1.491-.267-2.624-.801-3.398s-1.296-1.162-2.285-1.162c-.983 0-1.742.384-2.275 1.152-.534.762-.804 1.882-.811 3.359v.693c0 1.452.267 2.578.801 3.379s1.302 1.201 2.305 1.201c.983 0 1.738-.384 2.266-1.152.527-.775.794-1.901.801-3.379v-.693zM32.184.781l3.652 10.313L39.469.781h3.848V15h-2.939v-3.887l.293-6.709L36.832 15H34.82L30.992 4.414l.293 6.699V15h-2.93V.781h3.828zM50.856 15V.781h4.375c1.25 0 2.367.283 3.35.85.99.56 1.761 1.361 2.314 2.402.553 1.035.83 2.214.83 3.535v.654c0 1.322-.273 2.497-.82 3.525-.54 1.029-1.305 1.826-2.295 2.393s-2.106.853-3.35.859h-4.404zm2.93-11.846v9.492h1.416c1.146 0 2.022-.374 2.627-1.123s.915-1.82.928-3.213v-.752c0-1.445-.299-2.539-.898-3.281-.599-.749-1.475-1.123-2.627-1.123h-1.445zm18.633 5.684h-5.625v3.809h6.601V15h-9.531V.781h9.512v2.373h-6.582v3.389h5.625v2.295zM3.731 38.477H16.9V40H1.549v-1.362L14.205 20.21H1.93v-1.538h14.502v1.289l-12.7 18.516zm28.931-8.701h-9.976v8.701h11.47V40H20.885V18.672h13.198v1.538H22.687v8.042h9.976v1.523zm19.995-11.103v14.56c-.01 1.436-.327 2.686-.952 3.75s-1.509 1.885-2.651 2.461c-1.133.566-2.437.85-3.911.85-2.246 0-4.048-.61-5.405-1.831-1.348-1.23-2.046-2.93-2.095-5.098V18.672h1.787v14.429c0 1.797.513 3.193 1.538 4.189 1.025.986 2.417 1.48 4.175 1.48s3.145-.498 4.16-1.494c1.025-.996 1.538-2.383 1.538-4.16V18.672h1.816zm17.095 16.084c0-1.182-.415-2.114-1.245-2.798-.83-.693-2.349-1.348-4.556-1.963-2.207-.625-3.818-1.304-4.834-2.036-1.445-1.035-2.168-2.393-2.168-4.072 0-1.631.669-2.954 2.007-3.97 1.348-1.025 3.066-1.538 5.156-1.538 1.416 0 2.681.273 3.794.82 1.123.547 1.992 1.309 2.608 2.285s.923 2.065.923 3.267H69.62c0-1.455-.498-2.622-1.494-3.501-.996-.889-2.334-1.333-4.014-1.333-1.631 0-2.93.366-3.897 1.099-.967.723-1.45 1.67-1.45 2.842 0 1.084.435 1.968 1.304 2.651s2.261 1.289 4.175 1.816c1.914.518 3.364 1.06 4.351 1.626.986.557 1.728 1.226 2.227 2.007s.747 1.704.747 2.769c0 1.68-.674 3.027-2.022 4.043-1.338 1.016-3.105 1.523-5.303 1.523-1.504 0-2.886-.269-4.146-.806-1.25-.537-2.202-1.289-2.856-2.256-.644-.967-.967-2.075-.967-3.325h1.802c0 1.504.562 2.691 1.685 3.56s2.617 1.304 4.482 1.304c1.66 0 2.993-.366 3.999-1.099s1.509-1.704 1.509-2.915z" fill="#fff"/></svg>